<svg xmlns="http://www.w3.org/2000/svg" xmlns:xlink="http://www.w3.org/1999/xlink" width="500" zoomAndPan="magnify" viewBox="0 0 375 374.999991" height="500" preserveAspectRatio="xMidYMid meet" version="1.0"><defs><g/><clipPath id="bb8fa6b29d"><path d="M 31.621094 40 L 201.039062 40 L 201.039062 339 L 31.621094 339 Z M 31.621094 40 " clip-rule="nonzero"/></clipPath><clipPath id="fc7c28df5f"><path d="M 126 53.351562 L 343.378906 53.351562 L 343.378906 326 L 126 326 Z M 126 53.351562 " clip-rule="nonzero"/></clipPath></defs><g clip-path="url(#bb8fa6b29d)"><path fill="#ffffff" d="M 31.621094 149.335938 C 31.621094 149.335938 102.035156 177.558594 138.800781 157.890625 C 190.808594 130.066406 161.613281 66.386719 188.976562 40.257812 C 188.976562 40.257812 183.945312 74.023438 196.953125 135.65625 C 225.464844 270.769531 95.472656 339.183594 95.472656 339.183594 C 95.472656 339.183594 136.875 276.09375 112.222656 222.3125 C 93.183594 180.777344 58.027344 186.953125 31.621094 149.335938 " fill-opacity="1" fill-rule="nonzero"/></g><path fill="#ffffff" d="M 149.921875 125.46875 C 149.921875 139.527344 138.527344 150.917969 124.472656 150.917969 C 110.417969 150.917969 99.027344 139.527344 99.027344 125.46875 C 99.027344 111.417969 110.417969 100.023438 124.472656 100.023438 C 138.527344 100.023438 149.921875 111.417969 149.921875 125.46875 " fill-opacity="1" fill-rule="nonzero"/><path fill="#ffffff" d="M 119.273438 117.535156 L 151.011719 84.667969 L 105.644531 87.574219 L 73.640625 119.863281 L 79.464844 119.566406 L 85.316406 132.4375 C 84.863281 132.960938 84.722656 133.71875 85.03125 134.394531 C 85.335938 135.066406 86 135.460938 86.695312 135.460938 L 86.800781 135.699219 L 88.859375 148.136719 L 91.746094 144.742188 L 96.203125 144.792969 L 88.179688 135.074219 L 88.070312 134.835938 C 88.527344 134.3125 88.664062 133.550781 88.359375 132.878906 C 88.050781 132.207031 87.390625 131.8125 86.695312 131.8125 L 81.089844 119.484375 L 119.273438 117.535156 " fill-opacity="1" fill-rule="nonzero"/><g clip-path="url(#fc7c28df5f)"><path fill="#f6921e" d="M 342.589844 156.4375 C 340.480469 149.945312 334.710938 145.753906 327.882812 145.753906 L 242.21875 145.753906 L 215.742188 64.277344 C 213.636719 57.789062 207.863281 53.59375 201.039062 53.59375 C 198.410156 53.59375 195.941406 54.222656 193.773438 55.359375 C 193.648438 63.449219 193.921875 74.882812 195.398438 89.421875 L 201.039062 72.054688 L 226.839844 151.457031 C 228.914062 157.847656 234.824219 162.140625 241.542969 162.140625 L 325.035156 162.140625 L 257.488281 211.214844 C 252.054688 215.164062 249.796875 222.109375 251.871094 228.5 L 277.671875 307.90625 L 210.128906 258.832031 C 207.410156 256.855469 204.222656 255.867188 201.039062 255.867188 C 197.855469 255.867188 194.667969 256.855469 191.949219 258.832031 L 178.371094 268.699219 C 173.3125 276.609375 167.601562 284.316406 161.246094 291.785156 C 149.269531 305.855469 136.773438 317.058594 126.085938 325.441406 C 128.0625 324.980469 129.980469 324.113281 131.734375 322.839844 L 201.039062 272.484375 L 270.347656 322.839844 C 273.105469 324.84375 276.269531 325.847656 279.433594 325.847656 C 282.597656 325.847656 285.761719 324.84375 288.523438 322.839844 C 294.042969 318.828125 296.25 312.042969 294.140625 305.550781 L 267.664062 224.078125 L 336.972656 173.722656 C 342.496094 169.710938 344.699219 162.925781 342.589844 156.4375 " fill-opacity="1" fill-rule="nonzero"/></g><path fill="#ffffff" d="M 135.085938 153.980469 C 135.085938 153.980469 152.476562 168.089844 145.917969 197.59375 L 157.890625 203.011719 L 163.023438 188.1875 C 163.023438 188.1875 159.460938 166.949219 140.503906 150.917969 L 135.085938 153.980469 " fill-opacity="1" fill-rule="nonzero"/><path fill="#f6921e" d="M 191.101562 0 L 195.269531 12.839844 L 208.769531 12.839844 L 197.851562 20.773438 L 202.019531 33.609375 L 191.101562 25.675781 L 180.179688 33.609375 L 184.351562 20.773438 L 173.433594 12.839844 L 186.929688 12.839844 L 191.101562 0 " fill-opacity="1" fill-rule="nonzero"/><g fill="#ffffff" fill-opacity="1"><g transform="translate(150.168746, 351.822692)"><g><path d="M 11.921875 -11.203125 C 12.003906 -11.203125 12.078125 -11.171875 12.140625 -11.109375 C 12.203125 -11.046875 12.234375 -10.96875 12.234375 -10.875 C 12.222656 -10.53125 12.207031 -9.914062 12.1875 -9.03125 C 12.164062 -8.144531 12.15625 -7 12.15625 -5.59375 C 12.15625 -4.207031 12.164062 -3.066406 12.1875 -2.171875 C 12.207031 -1.285156 12.222656 -0.664062 12.234375 -0.3125 C 12.234375 -0.226562 12.203125 -0.15625 12.140625 -0.09375 C 12.078125 -0.03125 12.003906 0 11.921875 0 L 10.046875 0 C 9.960938 0 9.890625 -0.03125 9.828125 -0.09375 C 9.765625 -0.15625 9.738281 -0.226562 9.75 -0.3125 C 9.757812 -0.664062 9.773438 -1.285156 9.796875 -2.171875 C 9.816406 -3.066406 9.828125 -4.207031 9.828125 -5.59375 C 9.828125 -6.269531 9.820312 -6.878906 9.8125 -7.421875 C 9.8125 -7.972656 9.804688 -8.46875 9.796875 -8.90625 C 9.796875 -9 9.753906 -9.046875 9.671875 -9.046875 C 9.585938 -9.054688 9.535156 -9.015625 9.515625 -8.921875 C 9.441406 -8.492188 9.359375 -8 9.265625 -7.4375 C 9.171875 -6.882812 9.066406 -6.269531 8.953125 -5.59375 C 8.734375 -4.175781 8.554688 -3.015625 8.421875 -2.109375 C 8.296875 -1.210938 8.21875 -0.597656 8.1875 -0.265625 C 8.15625 -0.0859375 8.050781 0 7.875 0 L 5.171875 0 C 4.972656 0 4.863281 -0.0859375 4.84375 -0.265625 C 4.800781 -0.597656 4.71875 -1.210938 4.59375 -2.109375 C 4.476562 -3.015625 4.300781 -4.175781 4.0625 -5.59375 C 3.957031 -6.269531 3.851562 -6.882812 3.75 -7.4375 C 3.65625 -8 3.570312 -8.492188 3.5 -8.921875 C 3.488281 -9.015625 3.441406 -9.054688 3.359375 -9.046875 C 3.285156 -9.046875 3.25 -9 3.25 -8.90625 C 3.238281 -8.46875 3.226562 -7.972656 3.21875 -7.421875 C 3.21875 -6.878906 3.21875 -6.269531 3.21875 -5.59375 C 3.21875 -4.207031 3.226562 -3.066406 3.25 -2.171875 C 3.269531 -1.285156 3.285156 -0.664062 3.296875 -0.3125 C 3.296875 -0.226562 3.265625 -0.15625 3.203125 -0.09375 C 3.148438 -0.03125 3.070312 0 2.96875 0 L 1.125 0 C 1.019531 0 0.9375 -0.03125 0.875 -0.09375 C 0.820312 -0.15625 0.796875 -0.226562 0.796875 -0.3125 C 0.804688 -0.664062 0.820312 -1.285156 0.84375 -2.171875 C 0.863281 -3.066406 0.875 -4.207031 0.875 -5.59375 C 0.875 -7 0.863281 -8.144531 0.84375 -9.03125 C 0.820312 -9.914062 0.804688 -10.53125 0.796875 -10.875 C 0.796875 -10.96875 0.820312 -11.046875 0.875 -11.109375 C 0.9375 -11.171875 1.019531 -11.203125 1.125 -11.203125 L 4.75 -11.203125 C 4.9375 -11.203125 5.039062 -11.109375 5.0625 -10.921875 C 5.101562 -10.597656 5.179688 -9.988281 5.296875 -9.09375 C 5.421875 -8.195312 5.601562 -7.03125 5.84375 -5.59375 C 5.945312 -4.945312 6.039062 -4.347656 6.125 -3.796875 C 6.21875 -3.253906 6.304688 -2.773438 6.390625 -2.359375 C 6.398438 -2.273438 6.441406 -2.234375 6.515625 -2.234375 C 6.585938 -2.234375 6.628906 -2.273438 6.640625 -2.359375 C 6.722656 -2.773438 6.8125 -3.253906 6.90625 -3.796875 C 7 -4.347656 7.097656 -4.945312 7.203125 -5.59375 C 7.421875 -7.03125 7.59375 -8.195312 7.71875 -9.09375 C 7.851562 -9.988281 7.9375 -10.597656 7.96875 -10.921875 C 7.988281 -11.109375 8.09375 -11.203125 8.28125 -11.203125 Z M 11.921875 -11.203125 "/></g></g></g><g fill="#ffffff" fill-opacity="1"><g transform="translate(163.205614, 351.822692)"><g><path d="M 8.0625 -9.828125 C 8.0625 -9.742188 8.03125 -9.664062 7.96875 -9.59375 C 7.914062 -9.53125 7.84375 -9.5 7.75 -9.5 L 3.5625 -9.5 C 3.476562 -9.5 3.40625 -9.46875 3.34375 -9.40625 C 3.28125 -9.351562 3.25 -9.285156 3.25 -9.203125 C 3.25 -8.867188 3.242188 -8.5 3.234375 -8.09375 C 3.234375 -7.6875 3.226562 -7.242188 3.21875 -6.765625 C 3.21875 -6.679688 3.25 -6.609375 3.3125 -6.546875 C 3.375 -6.484375 3.445312 -6.453125 3.53125 -6.453125 L 6.90625 -6.453125 C 7 -6.453125 7.078125 -6.414062 7.140625 -6.34375 C 7.203125 -6.28125 7.234375 -6.207031 7.234375 -6.125 L 7.234375 -5.078125 C 7.234375 -4.984375 7.203125 -4.90625 7.140625 -4.84375 C 7.078125 -4.78125 7 -4.75 6.90625 -4.75 L 3.53125 -4.75 C 3.445312 -4.75 3.375 -4.71875 3.3125 -4.65625 C 3.25 -4.59375 3.21875 -4.519531 3.21875 -4.4375 C 3.226562 -3.957031 3.234375 -3.515625 3.234375 -3.109375 C 3.242188 -2.703125 3.25 -2.332031 3.25 -2 C 3.25 -1.914062 3.28125 -1.84375 3.34375 -1.78125 C 3.40625 -1.726562 3.476562 -1.703125 3.5625 -1.703125 L 7.75 -1.703125 C 7.84375 -1.703125 7.914062 -1.664062 7.96875 -1.59375 C 8.03125 -1.53125 8.0625 -1.457031 8.0625 -1.375 L 8.0625 -0.3125 C 8.0625 -0.226562 8.03125 -0.15625 7.96875 -0.09375 C 7.914062 -0.03125 7.84375 0 7.75 0 L 1.125 0 C 1.019531 0 0.9375 -0.03125 0.875 -0.09375 C 0.820312 -0.15625 0.796875 -0.226562 0.796875 -0.3125 C 0.804688 -0.664062 0.820312 -1.285156 0.84375 -2.171875 C 0.863281 -3.066406 0.875 -4.207031 0.875 -5.59375 C 0.875 -7 0.863281 -8.144531 0.84375 -9.03125 C 0.820312 -9.914062 0.804688 -10.53125 0.796875 -10.875 C 0.796875 -10.96875 0.820312 -11.046875 0.875 -11.109375 C 0.9375 -11.171875 1.019531 -11.203125 1.125 -11.203125 L 7.75 -11.203125 C 7.84375 -11.203125 7.914062 -11.171875 7.96875 -11.109375 C 8.03125 -11.046875 8.0625 -10.96875 8.0625 -10.875 Z M 8.0625 -9.828125 "/></g></g></g><g fill="#ffffff" fill-opacity="1"><g transform="translate(172.083482, 351.822692)"><g><path d="M 8.6875 -5.59375 C 8.6875 -4.207031 8.691406 -3.066406 8.703125 -2.171875 C 8.722656 -1.285156 8.742188 -0.664062 8.765625 -0.3125 C 8.765625 -0.226562 8.734375 -0.15625 8.671875 -0.09375 C 8.609375 -0.03125 8.535156 0 8.453125 0 L 5.09375 0 C 4.894531 0 4.785156 -0.0859375 4.765625 -0.265625 C 4.722656 -0.597656 4.628906 -1.210938 4.484375 -2.109375 C 4.335938 -3.003906 4.144531 -4.164062 3.90625 -5.59375 C 3.832031 -6.007812 3.757812 -6.398438 3.6875 -6.765625 C 3.613281 -7.140625 3.546875 -7.488281 3.484375 -7.8125 C 3.472656 -7.894531 3.425781 -7.929688 3.34375 -7.921875 C 3.269531 -7.910156 3.234375 -7.867188 3.234375 -7.796875 C 3.234375 -7.472656 3.226562 -7.128906 3.21875 -6.765625 C 3.21875 -6.398438 3.21875 -6.007812 3.21875 -5.59375 C 3.21875 -4.207031 3.226562 -3.066406 3.25 -2.171875 C 3.269531 -1.285156 3.285156 -0.664062 3.296875 -0.3125 C 3.296875 -0.226562 3.265625 -0.15625 3.203125 -0.09375 C 3.148438 -0.03125 3.070312 0 2.96875 0 L 1.125 0 C 1.019531 0 0.9375 -0.03125 0.875 -0.09375 C 0.820312 -0.15625 0.796875 -0.226562 0.796875 -0.3125 C 0.804688 -0.664062 0.820312 -1.285156 0.84375 -2.171875 C 0.863281 -3.066406 0.875 -4.207031 0.875 -5.59375 C 0.875 -7 0.863281 -8.144531 0.84375 -9.03125 C 0.820312 -9.914062 0.804688 -10.53125 0.796875 -10.875 C 0.796875 -10.96875 0.820312 -11.046875 0.875 -11.109375 C 0.9375 -11.171875 1.019531 -11.203125 1.125 -11.203125 L 4.484375 -11.203125 C 4.660156 -11.203125 4.765625 -11.109375 4.796875 -10.921875 C 4.835938 -10.609375 4.925781 -10 5.0625 -9.09375 C 5.207031 -8.195312 5.40625 -7.03125 5.65625 -5.59375 C 5.738281 -5.1875 5.8125 -4.796875 5.875 -4.421875 C 5.945312 -4.054688 6.007812 -3.710938 6.0625 -3.390625 C 6.082031 -3.304688 6.132812 -3.269531 6.21875 -3.28125 C 6.300781 -3.289062 6.34375 -3.332031 6.34375 -3.40625 C 6.34375 -3.726562 6.34375 -4.070312 6.34375 -4.4375 C 6.351562 -4.800781 6.359375 -5.1875 6.359375 -5.59375 C 6.359375 -7 6.34375 -8.144531 6.3125 -9.03125 C 6.289062 -9.914062 6.273438 -10.53125 6.265625 -10.875 C 6.253906 -10.96875 6.28125 -11.046875 6.34375 -11.109375 C 6.414062 -11.171875 6.492188 -11.203125 6.578125 -11.203125 L 8.453125 -11.203125 C 8.535156 -11.203125 8.609375 -11.171875 8.671875 -11.109375 C 8.734375 -11.046875 8.765625 -10.96875 8.765625 -10.875 C 8.742188 -10.53125 8.722656 -9.914062 8.703125 -9.03125 C 8.691406 -8.144531 8.6875 -7 8.6875 -5.59375 Z M 8.6875 -5.59375 "/></g></g></g><g fill="#ffffff" fill-opacity="1"><g transform="translate(181.649186, 351.822692)"><g><path d="M 8.625 -9.828125 C 8.625 -9.742188 8.59375 -9.664062 8.53125 -9.59375 C 8.46875 -9.53125 8.390625 -9.5 8.296875 -9.5 L 6.21875 -9.5 C 6.132812 -9.5 6.0625 -9.46875 6 -9.40625 C 5.945312 -9.351562 5.921875 -9.285156 5.921875 -9.203125 C 5.910156 -8.742188 5.898438 -8.210938 5.890625 -7.609375 C 5.890625 -7.015625 5.890625 -6.34375 5.890625 -5.59375 C 5.890625 -4.207031 5.894531 -3.066406 5.90625 -2.171875 C 5.925781 -1.285156 5.941406 -0.664062 5.953125 -0.3125 C 5.960938 -0.226562 5.9375 -0.15625 5.875 -0.09375 C 5.8125 -0.03125 5.734375 0 5.640625 0 L 3.78125 0 C 3.6875 0 3.609375 -0.03125 3.546875 -0.09375 C 3.484375 -0.15625 3.453125 -0.226562 3.453125 -0.3125 C 3.472656 -0.664062 3.488281 -1.285156 3.5 -2.171875 C 3.519531 -3.066406 3.53125 -4.207031 3.53125 -5.59375 C 3.53125 -6.34375 3.523438 -7.015625 3.515625 -7.609375 C 3.515625 -8.210938 3.507812 -8.742188 3.5 -9.203125 C 3.5 -9.285156 3.46875 -9.351562 3.40625 -9.40625 C 3.351562 -9.46875 3.28125 -9.5 3.1875 -9.5 L 1.125 -9.5 C 1.03125 -9.5 0.953125 -9.53125 0.890625 -9.59375 C 0.828125 -9.664062 0.796875 -9.742188 0.796875 -9.828125 L 0.796875 -10.875 C 0.796875 -10.96875 0.828125 -11.046875 0.890625 -11.109375 C 0.953125 -11.171875 1.03125 -11.203125 1.125 -11.203125 L 8.296875 -11.203125 C 8.390625 -11.203125 8.46875 -11.171875 8.53125 -11.109375 C 8.59375 -11.046875 8.625 -10.96875 8.625 -10.875 Z M 8.625 -9.828125 "/></g></g></g><g fill="#ffffff" fill-opacity="1"><g transform="translate(191.070923, 351.822692)"><g><path d="M 3.296875 -0.3125 C 3.296875 -0.226562 3.265625 -0.15625 3.203125 -0.09375 C 3.148438 -0.03125 3.070312 0 2.96875 0 L 1.125 0 C 1.019531 0 0.9375 -0.03125 0.875 -0.09375 C 0.820312 -0.15625 0.796875 -0.226562 0.796875 -0.3125 C 0.804688 -0.664062 0.820312 -1.285156 0.84375 -2.171875 C 0.863281 -3.066406 0.875 -4.207031 0.875 -5.59375 C 0.875 -7 0.863281 -8.144531 0.84375 -9.03125 C 0.820312 -9.914062 0.804688 -10.53125 0.796875 -10.875 C 0.796875 -10.96875 0.820312 -11.046875 0.875 -11.109375 C 0.9375 -11.171875 1.019531 -11.203125 1.125 -11.203125 L 2.96875 -11.203125 C 3.070312 -11.203125 3.148438 -11.171875 3.203125 -11.109375 C 3.265625 -11.046875 3.296875 -10.96875 3.296875 -10.875 C 3.285156 -10.53125 3.269531 -9.914062 3.25 -9.03125 C 3.226562 -8.144531 3.21875 -7 3.21875 -5.59375 C 3.21875 -4.207031 3.226562 -3.066406 3.25 -2.171875 C 3.269531 -1.285156 3.285156 -0.664062 3.296875 -0.3125 Z M 3.296875 -0.3125 "/></g></g></g><g fill="#ffffff" fill-opacity="1"><g transform="translate(195.165939, 351.822692)"><g><path d="M 6.03125 -5.59375 C 6.332031 -7.03125 6.566406 -8.195312 6.734375 -9.09375 C 6.898438 -10 7.019531 -10.613281 7.09375 -10.9375 C 7.113281 -11.113281 7.210938 -11.203125 7.390625 -11.203125 L 9.265625 -11.203125 C 9.367188 -11.203125 9.453125 -11.160156 9.515625 -11.078125 C 9.578125 -10.992188 9.59375 -10.90625 9.5625 -10.8125 C 9.476562 -10.4375 9.332031 -9.804688 9.125 -8.921875 C 8.914062 -8.046875 8.675781 -6.9375 8.40625 -5.59375 C 8.09375 -4.15625 7.847656 -2.984375 7.671875 -2.078125 C 7.503906 -1.179688 7.394531 -0.570312 7.34375 -0.25 C 7.3125 -0.0820312 7.210938 0 7.046875 0 L 3.265625 0 C 3.097656 0 2.992188 -0.0820312 2.953125 -0.25 C 2.898438 -0.570312 2.789062 -1.179688 2.625 -2.078125 C 2.457031 -2.984375 2.21875 -4.15625 1.90625 -5.59375 C 1.613281 -6.9375 1.363281 -8.046875 1.15625 -8.921875 C 0.957031 -9.804688 0.816406 -10.4375 0.734375 -10.8125 C 0.703125 -10.90625 0.71875 -10.992188 0.78125 -11.078125 C 0.84375 -11.160156 0.929688 -11.203125 1.046875 -11.203125 L 2.90625 -11.203125 C 3.082031 -11.203125 3.1875 -11.113281 3.21875 -10.9375 C 3.28125 -10.613281 3.394531 -10 3.5625 -9.09375 C 3.738281 -8.195312 3.972656 -7.03125 4.265625 -5.59375 C 4.421875 -4.90625 4.554688 -4.273438 4.671875 -3.703125 C 4.796875 -3.128906 4.914062 -2.625 5.03125 -2.1875 C 5.039062 -2.113281 5.078125 -2.078125 5.140625 -2.078125 C 5.210938 -2.078125 5.257812 -2.113281 5.28125 -2.1875 C 5.375 -2.625 5.484375 -3.128906 5.609375 -3.703125 C 5.742188 -4.273438 5.882812 -4.90625 6.03125 -5.59375 Z M 6.03125 -5.59375 "/></g></g></g><g fill="#ffffff" fill-opacity="1"><g transform="translate(205.467464, 351.822692)"><g><path d="M 8.21875 0 L 6.1875 0 C 6.101562 0 6.03125 -0.03125 5.96875 -0.09375 C 5.90625 -0.15625 5.875 -0.226562 5.875 -0.3125 L 5.875 -2.78125 C 5.875 -3.03125 5.832031 -3.269531 5.75 -3.5 C 5.675781 -3.738281 5.539062 -3.929688 5.34375 -4.078125 C 5.15625 -4.234375 4.882812 -4.3125 4.53125 -4.3125 L 3.53125 -4.3125 C 3.445312 -4.3125 3.375 -4.28125 3.3125 -4.21875 C 3.25 -4.15625 3.222656 -4.082031 3.234375 -4 C 3.234375 -3.0625 3.238281 -2.28125 3.25 -1.65625 C 3.269531 -1.039062 3.285156 -0.59375 3.296875 -0.3125 C 3.296875 -0.226562 3.265625 -0.15625 3.203125 -0.09375 C 3.148438 -0.03125 3.070312 0 2.96875 0 L 1.125 0 C 1.019531 0 0.9375 -0.03125 0.875 -0.09375 C 0.820312 -0.15625 0.796875 -0.226562 0.796875 -0.3125 C 0.804688 -0.664062 0.820312 -1.285156 0.84375 -2.171875 C 0.863281 -3.066406 0.875 -4.207031 0.875 -5.59375 C 0.875 -7 0.863281 -8.144531 0.84375 -9.03125 C 0.820312 -9.914062 0.804688 -10.53125 0.796875 -10.875 C 0.796875 -10.96875 0.820312 -11.046875 0.875 -11.109375 C 0.9375 -11.171875 1.019531 -11.203125 1.125 -11.203125 L 4.59375 -11.203125 C 5.113281 -11.203125 5.609375 -11.148438 6.078125 -11.046875 C 6.546875 -10.953125 6.960938 -10.78125 7.328125 -10.53125 C 7.691406 -10.289062 7.976562 -9.953125 8.1875 -9.515625 C 8.394531 -9.078125 8.5 -8.519531 8.5 -7.84375 C 8.5 -7.207031 8.351562 -6.679688 8.0625 -6.265625 C 7.78125 -5.859375 7.414062 -5.539062 6.96875 -5.3125 C 6.925781 -5.289062 6.90625 -5.253906 6.90625 -5.203125 C 6.90625 -5.148438 6.929688 -5.109375 6.984375 -5.078125 C 7.390625 -4.878906 7.726562 -4.597656 8 -4.234375 C 8.269531 -3.867188 8.40625 -3.382812 8.40625 -2.78125 C 8.40625 -2.207031 8.421875 -1.710938 8.453125 -1.296875 C 8.484375 -0.890625 8.515625 -0.578125 8.546875 -0.359375 C 8.554688 -0.253906 8.53125 -0.164062 8.46875 -0.09375 C 8.40625 -0.03125 8.320312 0 8.21875 0 Z M 4.625 -9.5 L 3.5625 -9.5 C 3.476562 -9.5 3.40625 -9.46875 3.34375 -9.40625 C 3.28125 -9.351562 3.25 -9.285156 3.25 -9.203125 C 3.25 -8.816406 3.242188 -8.382812 3.234375 -7.90625 C 3.222656 -7.4375 3.21875 -6.914062 3.21875 -6.34375 C 3.21875 -6.238281 3.25 -6.15625 3.3125 -6.09375 C 3.375 -6.039062 3.445312 -6.015625 3.53125 -6.015625 L 4.625 -6.015625 C 4.976562 -6.015625 5.253906 -6.113281 5.453125 -6.3125 C 5.648438 -6.519531 5.785156 -6.765625 5.859375 -7.046875 C 5.929688 -7.328125 5.96875 -7.59375 5.96875 -7.84375 C 5.96875 -8.269531 5.890625 -8.601562 5.734375 -8.84375 C 5.578125 -9.082031 5.394531 -9.25 5.1875 -9.34375 C 4.976562 -9.445312 4.789062 -9.5 4.625 -9.5 Z M 4.625 -9.5 "/></g></g></g><g fill="#ffffff" fill-opacity="1"><g transform="translate(214.249304, 351.822692)"><g><path d="M 7.65625 0 C 7.476562 0 7.375 -0.0820312 7.34375 -0.25 C 7.320312 -0.40625 7.285156 -0.617188 7.234375 -0.890625 C 7.179688 -1.171875 7.117188 -1.515625 7.046875 -1.921875 C 7.003906 -2.085938 6.898438 -2.171875 6.734375 -2.171875 L 3.84375 -2.171875 C 3.664062 -2.171875 3.554688 -2.085938 3.515625 -1.921875 C 3.441406 -1.515625 3.378906 -1.171875 3.328125 -0.890625 C 3.285156 -0.617188 3.25 -0.40625 3.21875 -0.25 C 3.195312 -0.0820312 3.09375 0 2.90625 0 L 1.046875 0 C 0.929688 0 0.84375 -0.0351562 0.78125 -0.109375 C 0.71875 -0.191406 0.703125 -0.285156 0.734375 -0.390625 C 0.816406 -0.753906 0.957031 -1.375 1.15625 -2.25 C 1.363281 -3.132812 1.613281 -4.25 1.90625 -5.59375 C 2.21875 -7.039062 2.457031 -8.210938 2.625 -9.109375 C 2.789062 -10.015625 2.898438 -10.625 2.953125 -10.9375 C 2.992188 -11.113281 3.097656 -11.203125 3.265625 -11.203125 L 7.296875 -11.203125 C 7.472656 -11.203125 7.578125 -11.113281 7.609375 -10.9375 C 7.671875 -10.625 7.785156 -10.015625 7.953125 -9.109375 C 8.117188 -8.210938 8.351562 -7.039062 8.65625 -5.59375 C 8.945312 -4.25 9.191406 -3.132812 9.390625 -2.25 C 9.597656 -1.375 9.75 -0.753906 9.84375 -0.390625 C 9.863281 -0.285156 9.84375 -0.191406 9.78125 -0.109375 C 9.71875 -0.0351562 9.632812 0 9.53125 0 Z M 4.296875 -3.875 L 6.265625 -3.875 C 6.367188 -3.875 6.453125 -3.910156 6.515625 -3.984375 C 6.578125 -4.054688 6.597656 -4.140625 6.578125 -4.234375 C 6.535156 -4.453125 6.488281 -4.675781 6.4375 -4.90625 C 6.394531 -5.132812 6.34375 -5.363281 6.28125 -5.59375 C 6.125 -6.351562 5.976562 -7.039062 5.84375 -7.65625 C 5.707031 -8.269531 5.585938 -8.800781 5.484375 -9.25 C 5.460938 -9.351562 5.394531 -9.40625 5.28125 -9.40625 C 5.175781 -9.40625 5.109375 -9.351562 5.078125 -9.25 C 4.972656 -8.800781 4.851562 -8.269531 4.71875 -7.65625 C 4.582031 -7.039062 4.429688 -6.351562 4.265625 -5.59375 C 4.210938 -5.363281 4.160156 -5.132812 4.109375 -4.90625 C 4.066406 -4.675781 4.023438 -4.453125 3.984375 -4.234375 C 3.960938 -4.140625 3.984375 -4.054688 4.046875 -3.984375 C 4.109375 -3.910156 4.191406 -3.875 4.296875 -3.875 Z M 4.296875 -3.875 "/></g></g></g></svg>