<svg xmlns="http://www.w3.org/2000/svg" xmlns:xlink="http://www.w3.org/1999/xlink" width="500" zoomAndPan="magnify" viewBox="0 0 375 374.999991" height="500" preserveAspectRatio="xMidYMid meet" version="1.0"><defs><clipPath id="b14bd17139"><path d="M 187.5 0 C 83.945312 0 0 83.945312 0 187.5 C 0 291.054688 83.945312 375 187.5 375 C 291.054688 375 375 291.054688 375 187.5 C 375 83.945312 291.054688 0 187.5 0 Z M 187.5 0 " clip-rule="nonzero"/></clipPath><clipPath id="cde7665fc8"><path d="M 0 0 L 375 0 L 375 375 L 0 375 Z M 0 0 " clip-rule="nonzero"/></clipPath><clipPath id="9dd74787c6"><path d="M 187.5 0 C 83.945312 0 0 83.945312 0 187.5 C 0 291.054688 83.945312 375 187.5 375 C 291.054688 375 375 291.054688 375 187.5 C 375 83.945312 291.054688 0 187.5 0 Z M 187.5 0 " clip-rule="nonzero"/></clipPath><clipPath id="7a6b995486"><rect x="0" width="375" y="0" height="375"/></clipPath><clipPath id="26f9fb8216"><path d="M 31.621094 49 L 201.039062 49 L 201.039062 347.929688 L 31.621094 347.929688 Z M 31.621094 49 " clip-rule="nonzero"/></clipPath><clipPath id="179fd34da8"><path d="M 126 62.28125 L 343.378906 62.28125 L 343.378906 335 L 126 335 Z M 126 62.28125 " clip-rule="nonzero"/></clipPath><clipPath id="a7467eb666"><path d="M 173 8.929688 L 209 8.929688 L 209 43 L 173 43 Z M 173 8.929688 " clip-rule="nonzero"/></clipPath></defs><g clip-path="url(#b14bd17139)"><g transform="matrix(1, 0, 0, 1, 0, 0)"><g clip-path="url(#7a6b995486)"><g clip-path="url(#cde7665fc8)"><g clip-path="url(#9dd74787c6)"><rect x="-82.5" width="540" fill="#ffffff" height="539.999987" y="-82.499998" fill-opacity="1"/></g></g></g></g></g><g clip-path="url(#26f9fb8216)"><path fill="#054676" d="M 31.621094 158.265625 C 31.621094 158.265625 102.035156 186.488281 138.800781 166.820312 C 190.808594 138.996094 161.613281 75.316406 188.976562 49.1875 C 188.976562 49.1875 183.945312 82.949219 196.953125 144.582031 C 225.464844 279.699219 95.472656 348.113281 95.472656 348.113281 C 95.472656 348.113281 136.875 285.023438 112.222656 231.242188 C 93.183594 189.703125 58.027344 195.878906 31.621094 158.265625 " fill-opacity="1" fill-rule="nonzero"/></g><path fill="#054676" d="M 149.921875 134.398438 C 149.921875 148.453125 138.527344 159.847656 124.472656 159.847656 C 110.417969 159.847656 99.027344 148.453125 99.027344 134.398438 C 99.027344 120.34375 110.417969 108.953125 124.472656 108.953125 C 138.527344 108.953125 149.921875 120.34375 149.921875 134.398438 " fill-opacity="1" fill-rule="nonzero"/><path fill="#054676" d="M 119.273438 126.464844 L 151.011719 93.597656 L 105.644531 96.5 L 73.640625 128.792969 L 79.464844 128.496094 L 85.316406 141.367188 C 84.863281 141.890625 84.722656 142.648438 85.03125 143.320312 C 85.335938 143.996094 86 144.386719 86.695312 144.390625 L 86.800781 144.628906 L 88.859375 157.0625 L 91.746094 153.671875 L 96.203125 153.722656 L 88.179688 144 L 88.070312 143.761719 C 88.527344 143.238281 88.664062 142.480469 88.359375 141.808594 C 88.050781 141.132812 87.390625 140.738281 86.695312 140.738281 L 81.089844 128.414062 L 119.273438 126.464844 " fill-opacity="1" fill-rule="nonzero"/><g clip-path="url(#179fd34da8)"><path fill="#f6921e" d="M 342.589844 165.363281 C 340.480469 158.875 334.710938 154.679688 327.882812 154.679688 L 242.21875 154.679688 L 215.742188 73.207031 C 213.636719 66.714844 207.863281 62.523438 201.039062 62.523438 C 198.410156 62.523438 195.941406 63.152344 193.773438 64.285156 C 193.648438 72.375 193.921875 83.8125 195.398438 98.351562 L 201.039062 80.980469 L 226.839844 160.386719 C 228.914062 166.777344 234.824219 171.070312 241.542969 171.070312 L 325.035156 171.070312 L 257.488281 220.144531 C 252.054688 224.09375 249.796875 231.039062 251.871094 237.429688 L 277.671875 316.835938 L 210.128906 267.761719 C 207.410156 265.785156 204.222656 264.796875 201.039062 264.796875 C 197.855469 264.796875 194.667969 265.785156 191.949219 267.761719 L 178.371094 277.625 C 173.3125 285.539062 167.601562 293.242188 161.246094 300.710938 C 149.269531 314.78125 136.773438 325.988281 126.085938 334.371094 C 128.0625 333.90625 129.980469 333.042969 131.734375 331.769531 L 201.039062 281.414062 L 270.347656 331.769531 C 273.105469 333.773438 276.269531 334.777344 279.433594 334.777344 C 282.597656 334.777344 285.761719 333.773438 288.523438 331.769531 C 294.042969 327.753906 296.25 320.96875 294.140625 314.480469 L 267.664062 233.007812 L 336.972656 182.652344 C 342.496094 178.640625 344.699219 171.855469 342.589844 165.363281 " fill-opacity="1" fill-rule="nonzero"/></g><path fill="#ffffff" d="M 135.085938 162.910156 C 135.085938 162.910156 152.476562 177.019531 145.917969 206.523438 L 157.890625 211.9375 L 163.023438 197.117188 C 163.023438 197.117188 159.460938 175.878906 140.503906 159.847656 L 135.085938 162.910156 " fill-opacity="1" fill-rule="nonzero"/><g clip-path="url(#a7467eb666)"><path fill="#f6921e" d="M 191.101562 8.929688 L 195.269531 21.765625 L 208.769531 21.765625 L 197.851562 29.699219 L 202.019531 42.539062 L 191.101562 34.605469 L 180.179688 42.539062 L 184.351562 29.699219 L 173.433594 21.765625 L 186.929688 21.765625 L 191.101562 8.929688 " fill-opacity="1" fill-rule="nonzero"/></g></svg>